<svg width="411" height="106" viewBox="0 0 411 106" fill="none" xmlns="http://www.w3.org/2000/svg">
<path d="M79.8191 21.2169C79.8191 21.2169 59.5842 21.1312 43.3549 21.0633C43.3323 21.0631 43.3096 21.0631 43.287 21.0632C42.2555 21.0689 41.2255 21.3828 40.3468 22.005C40.1203 22.1673 39.9036 22.3498 39.7001 22.5533C39.0326 23.2208 38.5868 24.0261 38.3629 24.8777L22.7538 83.4062L81.2823 67.7971C82.1339 67.5732 82.9392 67.1274 83.6067 66.4599C83.8102 66.2564 83.9931 66.0401 84.1553 65.8136C84.7775 64.9349 85.0911 63.9045 85.0968 62.873C85.0969 62.8504 85.0969 62.8277 85.0967 62.8051C85.0288 46.5758 84.9431 26.3409 84.9431 26.3409C84.9378 25.0312 84.4355 23.7231 83.4362 22.7238C82.437 21.7246 81.1288 21.2222 79.8191 21.2169Z" fill="white"/>
<mask id="mask0" mask-type="alpha" maskUnits="userSpaceOnUse" x="0" y="0" width="106" height="106">
<path d="M79.8191 21.2169C79.8191 21.2169 59.5842 21.1312 43.3549 21.0633C43.3323 21.0631 43.3096 21.0631 43.287 21.0632C42.2555 21.0689 41.2255 21.3828 40.3468 22.005C40.1203 22.1673 39.9036 22.3498 39.7001 22.5533C39.0326 23.2208 38.5868 24.0261 38.3629 24.8777L22.7538 83.4062L81.2823 67.7971C82.1339 67.5732 82.9392 67.1274 83.6067 66.4599C83.8102 66.2564 83.9931 66.0401 84.1553 65.8136C84.7775 64.9349 85.0911 63.9045 85.0968 62.873C85.0969 62.8504 85.0969 62.8277 85.0967 62.8051C85.0288 46.5758 84.9431 26.3409 84.9431 26.3409C84.9378 25.0312 84.4355 23.7231 83.4362 22.7238C82.437 21.7246 81.1288 21.2222 79.8191 21.2169Z" fill="#C4C4C4"/>
</mask>
<g mask="url(#mask0)">
<path opacity="0.09" d="M62.2531 43.9093L22.756 83.4064L38.3651 24.8779C38.589 24.0264 39.0348 23.2211 39.7023 22.5536C39.9058 22.3501 40.1221 22.1672 40.3486 22.0049L62.2531 43.9093Z" fill="black"/>
<circle cx="52.897" cy="53.264" r="76.1329" transform="rotate(45 52.897 53.264)" fill="#C4C4C4"/>
<circle cx="52.897" cy="53.264" r="76.1329" transform="rotate(45 52.897 53.264)" fill="url(#paint0_linear)"/>
<rect x="36.0923" y="13.2334" width="38.9195" height="10.5176" transform="rotate(34.4223 36.0923 13.2334)" fill="url(#paint1_linear)"/>
<rect x="10.064" y="43.9141" width="52.1825" height="52.1825" fill="#C4C4C4"/>
<rect x="10.064" y="43.9141" width="52.1825" height="52.1825" fill="url(#paint2_linear)"/>
<rect x="50.623" y="43.9092" width="11.6285" height="11.6285" fill="white"/>
<rect x="24.5728" y="44.6885" width="52.1825" height="52.1825" transform="rotate(45 24.5728 44.6885)" fill="#C4C4C4"/>
<rect x="24.5728" y="44.6885" width="52.1825" height="52.1825" transform="rotate(45 24.5728 44.6885)" fill="url(#paint3_linear)"/>
<rect x="24.5728" y="44.6885" width="52.1825" height="52.1825" transform="rotate(45 24.5728 44.6885)" fill="url(#paint4_linear)"/>
<path opacity="0.2" d="M62.2508 43.908L22.7537 83.4051L81.2822 67.7961C82.1338 67.5721 82.9391 67.1264 83.6066 66.4589C83.8101 66.2553 83.993 66.039 84.1553 65.8125L62.2508 43.908Z" fill="black" fill-opacity="0.38"/>
<rect width="38.9195" height="10.5176" transform="matrix(-0.565288 -0.824893 -0.824893 0.565288 92.894 70.1035)" fill="url(#paint5_linear)"/>
<path fill-rule="evenodd" clip-rule="evenodd" d="M79.8206 21.2169C79.8206 21.2169 59.5857 21.1312 43.3564 21.0633C43.3337 21.0631 43.3111 21.0631 43.2884 21.0632C42.257 21.0689 41.2269 21.3828 40.3483 22.005L62.2518 43.9086L62.2523 43.909L84.1559 65.8126C84.7781 64.934 85.092 63.9039 85.0977 62.8725C85.0978 62.8498 85.0978 62.8272 85.0976 62.8045C85.0297 46.5752 84.944 26.3403 84.944 26.3403C84.9387 25.0308 84.4366 23.7229 83.4376 22.7237M79.8206 21.2169C81.1301 21.2222 82.4379 21.7243 83.4372 22.7233L79.8206 21.2169Z" fill="#F8F8F8"/>
<path fill-rule="evenodd" clip-rule="evenodd" d="M79.8206 21.2169C79.8206 21.2169 59.5857 21.1312 43.3564 21.0633C43.3337 21.0631 43.3111 21.0631 43.2884 21.0632C42.257 21.0689 41.2269 21.3828 40.3483 22.005L62.2518 43.9086L62.2523 43.909L84.1559 65.8126C84.7781 64.934 85.092 63.9039 85.0977 62.8725C85.0978 62.8498 85.0978 62.8272 85.0976 62.8045C85.0297 46.5752 84.944 26.3403 84.944 26.3403C84.9387 25.0308 84.4366 23.7229 83.4376 22.7237M79.8206 21.2169C81.1301 21.2222 82.4379 21.7243 83.4372 22.7233L79.8206 21.2169Z" fill="url(#paint6_linear)"/>
<path fill-rule="evenodd" clip-rule="evenodd" d="M43.3556 21.063C59.5849 21.131 79.8198 21.2167 79.8198 21.2167L83.4342 22.7224C83.4348 22.7229 83.4353 22.7235 83.4359 22.7241C83.4621 22.7503 83.4883 22.7765 83.5145 22.8028C84.4619 23.7913 84.9381 25.0649 84.9433 26.3401C84.9433 26.3401 85.029 46.575 85.0969 62.8043C85.0971 62.8269 85.0971 62.8496 85.097 62.8722C85.0913 63.9037 84.7774 64.9337 84.1552 65.8124L62.2516 43.9088L62.2511 43.9084L40.3476 22.0048C41.2262 21.3826 42.2563 21.0686 43.2877 21.063C43.3104 21.0628 43.333 21.0629 43.3556 21.063ZM83.4338 22.7219L79.8198 21.2167C81.095 21.2218 82.3686 21.6981 83.3572 22.6454C83.3827 22.6709 83.4082 22.6964 83.4338 22.7219Z" fill="#C4C4C4"/>
<path fill-rule="evenodd" clip-rule="evenodd" d="M43.3556 21.063C59.5849 21.131 79.8198 21.2167 79.8198 21.2167L83.4342 22.7224C83.4348 22.7229 83.4353 22.7235 83.4359 22.7241C83.4621 22.7503 83.4883 22.7765 83.5145 22.8028C84.4619 23.7913 84.9381 25.0649 84.9433 26.3401C84.9433 26.3401 85.029 46.575 85.0969 62.8043C85.0971 62.8269 85.0971 62.8496 85.097 62.8722C85.0913 63.9037 84.7774 64.9337 84.1552 65.8124L62.2516 43.9088L62.2511 43.9084L40.3476 22.0048C41.2262 21.3826 42.2563 21.0686 43.2877 21.063C43.3104 21.0628 43.333 21.0629 43.3556 21.063ZM83.4338 22.7219L79.8198 21.2167C81.095 21.2218 82.3686 21.6981 83.3572 22.6454C83.3827 22.6709 83.4082 22.6964 83.4338 22.7219Z" fill="url(#paint7_linear)"/>
<path fill-rule="evenodd" clip-rule="evenodd" d="M43.3556 21.063C59.5849 21.131 79.8198 21.2167 79.8198 21.2167L83.4342 22.7224C83.4348 22.7229 83.4353 22.7235 83.4359 22.7241C83.4621 22.7503 83.4883 22.7765 83.5145 22.8028C84.4619 23.7913 84.9381 25.0649 84.9433 26.3401C84.9433 26.3401 85.029 46.575 85.0969 62.8043C85.0971 62.8269 85.0971 62.8496 85.097 62.8722C85.0913 63.9037 84.7774 64.9337 84.1552 65.8124L62.2516 43.9088L62.2511 43.9084L40.3476 22.0048C41.2262 21.3826 42.2563 21.0686 43.2877 21.063C43.3104 21.0628 43.333 21.0629 43.3556 21.063ZM83.4338 22.7219L79.8198 21.2167C81.095 21.2218 82.3686 21.6981 83.3572 22.6454C83.3827 22.6709 83.4082 22.6964 83.4338 22.7219Z" fill="url(#paint8_linear)"/>
<path fill-rule="evenodd" clip-rule="evenodd" d="M43.3556 21.063C59.5849 21.131 79.8198 21.2167 79.8198 21.2167L83.4342 22.7224C83.4348 22.7229 83.4353 22.7235 83.4359 22.7241C83.4621 22.7503 83.4883 22.7765 83.5145 22.8028C84.4619 23.7913 84.9381 25.0649 84.9433 26.3401C84.9433 26.3401 85.029 46.575 85.0969 62.8043C85.0971 62.8269 85.0971 62.8496 85.097 62.8722C85.0913 63.9037 84.7774 64.9337 84.1552 65.8124L62.2516 43.9088L62.2511 43.9084L40.3476 22.0048C41.2262 21.3826 42.2563 21.0686 43.2877 21.063C43.3104 21.0628 43.333 21.0629 43.3556 21.063ZM83.4338 22.7219L79.8198 21.2167C81.095 21.2218 82.3686 21.6981 83.3572 22.6454C83.3827 22.6709 83.4082 22.6964 83.4338 22.7219Z" fill="url(#paint9_linear)"/>
<path fill-rule="evenodd" clip-rule="evenodd" d="M43.3556 21.063C59.5849 21.131 79.8198 21.2167 79.8198 21.2167L83.4342 22.7224C83.4348 22.7229 83.4353 22.7235 83.4359 22.7241C83.4621 22.7503 83.4883 22.7765 83.5145 22.8028C84.4619 23.7913 84.9381 25.0649 84.9433 26.3401C84.9433 26.3401 85.029 46.575 85.0969 62.8043C85.0971 62.8269 85.0971 62.8496 85.097 62.8722C85.0913 63.9037 84.7774 64.9337 84.1552 65.8124L62.2516 43.9088L62.2511 43.9084L40.3476 22.0048C41.2262 21.3826 42.2563 21.0686 43.2877 21.063C43.3104 21.0628 43.333 21.0629 43.3556 21.063ZM83.4338 22.7219L79.8198 21.2167C81.095 21.2218 82.3686 21.6981 83.3572 22.6454C83.3827 22.6709 83.4082 22.6964 83.4338 22.7219Z" fill="url(#paint10_linear)"/>
<path opacity="0.1" d="M85.0978 62.8052C85.0298 46.5758 84.9441 26.341 84.9441 26.341C84.9388 25.0312 84.4366 23.7232 83.4373 22.7239L62.252 43.9092L84.156 65.8132C84.7782 64.9346 85.0921 63.9045 85.0978 62.8731C85.0979 62.8504 85.0979 62.8278 85.0978 62.8052Z" fill="black"/>
</g>
<rect width="14.6655" height="14.6655" transform="matrix(0.707107 -0.707107 -0.707107 -0.707107 211.96 67.9473)" fill="url(#paint11_linear)"/>
<path d="M116.293 79.6445V47.3485L138.672 79.6445H145.842V34.0817H138.27V66.1767L115.891 34.0817H108.788V79.6445H116.293ZM187.955 79.6445L186.816 73.7482H165.107V59.4763H181.389L180.249 53.5799H165.107V39.978H185.074L184.002 34.0817H157.602V79.6445H187.955Z" fill="#253C66"/>
<path d="M250.505 81.001V48.705L272.884 81.001H280.054V35.4381H272.482V67.5331L250.103 35.4381H243V81.001H250.505Z" fill="#253C66"/>
<path fill-rule="evenodd" clip-rule="evenodd" d="M237.1 57.5915C237.1 71.4691 225.85 82.7191 211.973 82.7191C198.095 82.7191 186.845 71.4691 186.845 57.5915C186.845 43.7139 198.095 32.4639 211.973 32.4639C225.85 32.4639 237.1 43.7139 237.1 57.5915ZM229.528 57.5691C229.528 67.2509 221.679 75.0995 211.998 75.0995C202.316 75.0995 194.467 67.2509 194.467 57.5691C194.467 47.8873 202.316 40.0387 211.998 40.0387C221.679 40.0387 229.528 47.8873 229.528 57.5691Z" fill="#253C66"/>
<path fill-rule="evenodd" clip-rule="evenodd" d="M330.946 48.4285C327.284 39.0824 318.186 32.4639 307.542 32.4639C293.664 32.4639 282.414 43.7139 282.414 57.5915C282.414 71.4691 293.664 82.7191 307.542 82.7191C318.221 82.7191 327.344 76.0569 330.982 66.6619H321.46C318.501 71.1958 313.384 74.1925 307.566 74.1925C298.41 74.1925 290.988 66.7703 290.988 57.6146C290.988 48.4589 298.41 41.0367 307.566 41.0367C313.324 41.0367 318.397 43.9723 321.368 48.4285H330.946Z" fill="url(#paint12_linear)"/>
<path fill-rule="evenodd" clip-rule="evenodd" d="M344.737 82.7201C358.615 82.7201 369.865 71.4701 369.865 57.5925C369.865 43.7149 358.615 32.4648 344.737 32.4648C334.092 32.4648 324.993 39.0839 321.332 48.4308H330.958C333.93 43.9739 339.003 41.0377 344.761 41.0377C353.917 41.0377 361.339 48.4598 361.339 57.6156C361.339 66.7713 353.917 74.1934 344.761 74.1934C338.944 74.1934 333.827 71.1974 330.868 66.6642H321.297C324.935 76.0585 334.058 82.7201 344.737 82.7201Z" fill="url(#paint13_linear)"/>
<path d="M373.211 77.7499C374.372 78.5986 376.36 79.425 379.174 80.2291C381.989 80.9884 384.356 81.3681 386.277 81.3681C389.806 81.3681 392.821 80.8544 395.322 79.827C397.869 78.755 399.789 77.2809 401.085 75.4048C402.38 73.5286 403.028 71.3845 403.028 68.9723C403.028 66.7389 402.47 64.7958 401.353 63.143C400.281 61.4455 398.874 60.0161 397.132 58.8547C395.434 57.6486 393.156 56.3086 390.297 54.8345C387.572 53.4497 385.562 52.4 384.267 51.6853C383.016 50.9259 381.989 50.0772 381.185 49.1391C380.425 48.1564 380.045 47.0396 380.045 45.7889C380.045 44.0468 380.783 42.729 382.257 41.8356C383.731 40.9423 385.629 40.4956 387.952 40.4956C389.783 40.4956 391.414 40.7189 392.843 41.1656C394.317 41.6123 395.903 42.2377 397.601 43.0417L400.147 37.0784C398.271 36.1403 396.238 35.3809 394.049 34.8002C391.905 34.1748 389.783 33.8621 387.684 33.8621C384.557 33.8621 381.832 34.3982 379.509 35.4702C377.231 36.4976 375.467 37.9271 374.216 39.7585C373.01 41.5453 372.407 43.5778 372.407 45.8559C372.407 49.0274 373.457 51.6853 375.556 53.8294C377.7 55.9289 380.872 58.0507 385.071 60.1948C387.572 61.4455 389.471 62.4506 390.766 63.21C392.106 63.9694 393.201 64.8404 394.049 65.8232C394.898 66.7612 395.322 67.8109 395.322 68.9723C395.322 70.8038 394.541 72.2332 392.977 73.2606C391.414 74.2433 389.158 74.7347 386.21 74.7347C384.378 74.7347 382.413 74.422 380.313 73.7967C378.214 73.1713 376.405 72.4789 374.886 71.7195L373.211 77.7499Z" fill="#253C66"/>
<defs>
<linearGradient id="paint0_linear" x1="72.5351" y1="13.9404" x2="18.8667" y2="11.1877" gradientUnits="userSpaceOnUse">
<stop stop-color="#FA3E72"/>
<stop offset="1" stop-color="#D63CA3"/>
</linearGradient>
<linearGradient id="paint1_linear" x1="57.4895" y1="13.3759" x2="55.2155" y2="25.6617" gradientUnits="userSpaceOnUse">
<stop stop-opacity="0.6"/>
<stop offset="1" stop-opacity="0"/>
</linearGradient>
<linearGradient id="paint2_linear" x1="10.0984" y1="61.6791" x2="56.683" y2="61.6791" gradientUnits="userSpaceOnUse">
<stop stop-color="#F7CB14"/>
<stop offset="1" stop-color="#F49416"/>
</linearGradient>
<linearGradient id="paint3_linear" x1="24.6072" y1="62.4535" x2="71.1918" y2="62.4535" gradientUnits="userSpaceOnUse">
<stop stop-color="#F7CB14"/>
<stop offset="1" stop-color="#F49416"/>
</linearGradient>
<linearGradient id="paint4_linear" x1="-13.4611" y1="214.639" x2="86.6521" y2="214.639" gradientUnits="userSpaceOnUse">
<stop stop-color="#0098FF"/>
<stop offset="1" stop-color="#226FFF"/>
</linearGradient>
<linearGradient id="paint5_linear" x1="21.3972" y1="0.142544" x2="19.1232" y2="12.4283" gradientUnits="userSpaceOnUse">
<stop stop-opacity="0.6"/>
<stop offset="1" stop-opacity="0"/>
</linearGradient>
<linearGradient id="paint6_linear" x1="98.0118" y1="24.9137" x2="76.2791" y2="0.831006" gradientUnits="userSpaceOnUse">
<stop stop-color="#FA3E72"/>
<stop offset="1" stop-color="#D63CA3"/>
</linearGradient>
<linearGradient id="paint7_linear" x1="-112.466" y1="286.883" x2="-204.014" y2="191.482" gradientUnits="userSpaceOnUse">
<stop stop-color="#FA3E72"/>
<stop offset="1" stop-color="#D63CA3"/>
</linearGradient>
<linearGradient id="paint8_linear" x1="-343.723" y1="185.613" x2="-107.491" y2="421.845" gradientUnits="userSpaceOnUse">
<stop stop-color="#F7CB14"/>
<stop offset="1" stop-color="#F49416"/>
</linearGradient>
<linearGradient id="paint9_linear" x1="-448.969" y1="290.51" x2="-242.406" y2="497.074" gradientUnits="userSpaceOnUse">
<stop stop-color="#0098FF"/>
<stop offset="1" stop-color="#226FFF"/>
</linearGradient>
<linearGradient id="paint10_linear" x1="87.9032" y1="46.0292" x2="51.5418" y2="6.43042" gradientUnits="userSpaceOnUse">
<stop stop-color="#FA3E72"/>
<stop offset="1" stop-color="#D63CA3"/>
</linearGradient>
<linearGradient id="paint11_linear" x1="-10.6891" y1="47.7633" x2="17.4469" y2="47.7633" gradientUnits="userSpaceOnUse">
<stop stop-color="#0098FF"/>
<stop offset="1" stop-color="#226FFF"/>
</linearGradient>
<linearGradient id="paint12_linear" x1="282.446" y1="49.5728" x2="325.804" y2="49.5728" gradientUnits="userSpaceOnUse">
<stop stop-color="#F7CB14"/>
<stop offset="1" stop-color="#F49416"/>
</linearGradient>
<linearGradient id="paint13_linear" x1="351.845" y1="44.6138" x2="334.723" y2="43.7651" gradientUnits="userSpaceOnUse">
<stop stop-color="#FA3E72"/>
<stop offset="1" stop-color="#D63CA3"/>
</linearGradient>
</defs>
</svg>
